<svg id="Слой_1" data-name="Слой 1" xmlns="http://www.w3.org/2000/svg" xmlns:xlink="http://www.w3.org/1999/xlink" viewBox="0 0 28.75996 38">
  <defs>
    <style>
      .cls-1 {
        fill: url(#Безымянный_градиент_478);
      }
    </style>
    <linearGradient id="Безымянный_градиент_478" data-name="Безымянный градиент 478" y1="19" x2="28.75996" y2="19" gradientUnits="userSpaceOnUse">
      <stop offset="0" stop-color="#6b8e23"/>
      <stop offset="0.31254" stop-color="#779735"/>
      <stop offset="0.93991" stop-color="#95b065"/>
      <stop offset="1" stop-color="#98b26a"/>
    </linearGradient>
  </defs>
  <path class="cls-1" d="M14.93449.10952,14.9321.10866a1.7936,1.7936,0,0,0-2.29889,1.072L.10866,35.59158h0a1.79361,1.79361,0,0,0,1.072,2.2989l.00238.00086a1.7936,1.7936,0,0,0,2.29889-1.072l.04507-.12381c.05688-.15591.1183-.31448.18328-.47264.12974-.31649.2688-.63435.42044-.94788a19.92076,19.92076,0,0,1,1.0046-1.8465,18.5371,18.5371,0,0,1,4.16307-4.77978,18.001,18.001,0,0,1,1.74915-1.23269,21.1584,21.1584,0,0,1,5.79458-2.5478l.00984-.003a.63095.63095,0,0,0-.29281-1.22479,21.82286,21.82286,0,0,0-6.2501,1.88383,12.32552,12.32552,0,0,0-2.24659,1.303A3.80928,3.80928,0,0,0,6.485,28.56844l7.83912-21.5378L25.28006,36.82486a1.79361,1.79361,0,0,0,2.30239,1.06447l.00238-.00088a1.79361,1.79361,0,0,0,1.06446-2.30239L28.633,35.5449,15.99589,1.17514h0A1.79361,1.79361,0,0,0,13.6935.11067"/>
</svg>
